<svg width="18" height="20" viewBox="0 0 18 20" fill="none" xmlns="http://www.w3.org/2000/svg">
<circle cx="9" cy="11" r="9" fill="#E71F1F"/>
<path d="M9.87012 4.90909L9.74228 14.3182H8.25932L8.13148 4.90909H9.87012ZM9.0008 18.1023C8.68546 18.1023 8.41486 17.9893 8.18901 17.7635C7.96316 17.5376 7.85023 17.267 7.85023 16.9517C7.85023 16.6364 7.96316 16.3658 8.18901 16.1399C8.41486 15.9141 8.68546 15.8011 9.0008 15.8011C9.31614 15.8011 9.58674 15.9141 9.81259 16.1399C10.0384 16.3658 10.1514 16.6364 10.1514 16.9517C10.1514 17.1605 10.0981 17.3523 9.99157 17.527C9.88929 17.7017 9.7508 17.8423 9.57608 17.9489C9.40563 18.0511 9.21387 18.1023 9.0008 18.1023Z" fill="white"/>
</svg>
