<svg width="29" height="29" viewBox="0 0 29 29" fill="none" xmlns="http://www.w3.org/2000/svg">
<path d="M23.7801 2.31995H5.22007C3.61927 2.31995 2.32007 3.61915 2.32007 5.21995V23.7799C2.32007 25.3807 3.61927 26.6799 5.22007 26.6799H23.7801C25.3809 26.6799 26.6801 25.3807 26.6801 23.7799V5.21995C26.6801 3.61915 25.3809 2.31995 23.7801 2.31995ZM21.4601 11.0199H20.3001C19.0589 11.0199 18.5601 11.3099 18.5601 12.1799V13.9199H21.4601L20.8801 16.8199H18.5601V25.5199H15.6601V16.8199H13.3401V13.9199H15.6601V12.1799C15.6601 9.85995 16.8201 8.11995 19.1401 8.11995C20.8221 8.11995 21.4601 8.69995 21.4601 8.69995V11.0199Z" fill="#FFFBFC"/>
</svg>
