<svg width="33" height="33" viewBox="0 0 33 33" fill="none" xmlns="http://www.w3.org/2000/svg">
<path d="M10.9979 3.30005C6.753 3.30005 3.30005 6.7562 3.30005 11.0022V22.0022C3.30005 26.2471 6.7562 29.7 11.0022 29.7H22.0022C26.2471 29.7 29.7 26.2439 29.7 21.9979V10.9979C29.7 6.753 26.2439 3.30005 21.9979 3.30005H10.9979ZM24.2 7.70005C24.8072 7.70005 25.3 8.19285 25.3 8.80005C25.3 9.40725 24.8072 9.90005 24.2 9.90005C23.5928 9.90005 23.1 9.40725 23.1 8.80005C23.1 8.19285 23.5928 7.70005 24.2 7.70005ZM16.5 9.90005C20.1399 9.90005 23.1 12.8601 23.1 16.5C23.1 20.1399 20.1399 23.1 16.5 23.1C12.8601 23.1 9.90005 20.1399 9.90005 16.5C9.90005 12.8601 12.8601 9.90005 16.5 9.90005ZM16.5 12.1C15.3331 12.1 14.2139 12.5636 13.3888 13.3888C12.5636 14.2139 12.1 15.3331 12.1 16.5C12.1 17.667 12.5636 18.7862 13.3888 19.6113C14.2139 20.4365 15.3331 20.9 16.5 20.9C17.667 20.9 18.7862 20.4365 19.6113 19.6113C20.4365 18.7862 20.9 17.667 20.9 16.5C20.9 15.3331 20.4365 14.2139 19.6113 13.3888C18.7862 12.5636 17.667 12.1 16.5 12.1Z" fill="#FFFBFC"/>
</svg>
