<svg width="32" height="32" viewBox="0 0 32 32" fill="none" xmlns="http://www.w3.org/2000/svg">
<path d="M7.04006 2.56006C4.56582 2.56006 2.56006 4.56582 2.56006 7.04006V24.9601C2.56006 27.4343 4.56582 29.4401 7.04006 29.4401H24.9601C27.4343 29.4401 29.4401 27.4343 29.4401 24.9601V7.04006C29.4401 4.56582 27.4343 2.56006 24.9601 2.56006H7.04006ZM8.37506 8.32006H13.4551L17.0626 13.4463L21.4401 8.32006H23.0401L17.7851 14.4726L24.2651 23.6801H19.1863L15.0001 17.7326L9.92006 23.6801H8.32006L14.2776 16.7063L8.37506 8.32006ZM10.8251 9.60006L19.8538 22.4001H21.8151L12.7863 9.60006H10.8251Z" fill="#FFFBFC"/>
</svg>
