<svg width="32" height="32" viewBox="0 0 32 32" fill="none" xmlns="http://www.w3.org/2000/svg">
<path d="M28.7349 9.28001C28.4799 7.87251 27.2649 6.84751 25.8549 6.52751C23.7449 6.08001 19.8399 5.76001 15.6149 5.76001C11.3924 5.76001 7.42492 6.08001 5.31242 6.52751C3.90492 6.84751 2.68742 7.80751 2.43242 9.28001C2.17492 10.88 1.91992 13.12 1.91992 16C1.91992 18.88 2.17492 21.12 2.49492 22.72C2.75242 24.1275 3.96742 25.1525 5.37492 25.4725C7.61492 25.92 11.4549 26.24 15.6799 26.24C19.9049 26.24 23.7449 25.92 25.9849 25.4725C27.3924 25.1525 28.6074 24.1925 28.8649 22.72C29.1199 21.12 29.4399 18.815 29.5049 16C29.3749 13.12 29.0549 10.88 28.7349 9.28001ZM12.1599 20.48V11.52L19.9674 16L12.1599 20.48Z" fill="#FFFBFC"/>
</svg>
